<svg width="726" height="353" viewBox="0 0 726 353" fill="none" xmlns="http://www.w3.org/2000/svg">
<mask id="mask0" style="mask-type:alpha" maskUnits="userSpaceOnUse" x="0" y="0" width="726" height="353">
<path d="M176.093 3.06678e-05L172.473 3.6192L176.094 7.23735L179.715 3.61818L176.093 3.06678e-05Z" fill="#10FB06"/>
<path d="M176.095 28.7326L172.474 32.3517L176.096 35.9699L179.716 32.3507L176.095 28.7326Z" fill="#10FB06"/>
<path d="M176.096 57.4651L172.476 61.0842L176.097 64.7024L179.718 61.0832L176.096 57.4651Z" fill="#10FB06"/>
<path d="M176.093 86.1925L172.472 89.8116L176.094 93.4298L179.714 89.8106L176.093 86.1925Z" fill="#10FB06"/>
<path d="M176.091 114.94L172.476 118.554L176.091 122.167L179.707 118.554L176.091 114.94Z" fill="#10FB06"/>
<path d="M176.092 143.674L172.476 147.287L176.092 150.901L179.708 147.287L176.092 143.674Z" fill="#10FB06"/>
<path d="M176.088 172.402L172.472 176.016L176.088 179.629L179.703 176.016L176.088 172.402Z" fill="#10FB06"/>
<path d="M176.089 201.123L172.473 204.737L176.09 208.35L179.705 204.736L176.089 201.123Z" fill="#10FB06"/>
<path d="M176.09 229.855L172.475 233.469L176.091 237.082L179.706 233.468L176.09 229.855Z" fill="#10FB06"/>
<path d="M176.087 258.583L172.471 262.197L176.088 265.81L179.703 262.196L176.087 258.583Z" fill="#10FB06"/>
<path d="M3.62736 0.000519335L0.00689697 3.61969L3.62838 7.23784L7.24884 3.61867L3.62736 0.000519335Z" fill="#10FB06"/>
<path d="M3.62901 28.733L0.00854492 32.3522L3.63003 35.9703L7.25049 32.3511L3.62901 28.733Z" fill="#10FB06"/>
<path d="M3.63047 57.4655L0.0100098 61.0847L3.63149 64.7029L7.25195 61.0837L3.63047 57.4655Z" fill="#10FB06"/>
<path d="M3.62687 86.193L0.00640869 89.8121L3.62789 93.4303L7.24835 89.8111L3.62687 86.193Z" fill="#10FB06"/>
<path d="M3.62852 114.926L0.00805664 118.545L3.62954 122.163L7.25 118.544L3.62852 114.926Z" fill="#10FB06"/>
<path d="M3.6204 143.668L0.0045166 147.282L3.6204 150.895L7.23628 147.282L3.6204 143.668Z" fill="#10FB06"/>
<path d="M3.61588 172.397L0 176.01L3.61588 179.624L7.23176 176.01L3.61588 172.397Z" fill="#10FB06"/>
<path d="M3.61649 201.13L0.000610352 204.744L3.61648 208.357L7.23236 204.744L3.61649 201.13Z" fill="#10FB06"/>
<path d="M3.61704 229.864L0.00115967 233.477L3.61704 237.091L7.23292 233.477L3.61704 229.864Z" fill="#10FB06"/>
<path d="M3.62086 258.583L0.00549316 262.197L3.62189 265.81L7.23726 262.196L3.62086 258.583Z" fill="#10FB06"/>
<path d="M204.839 0.00356279L201.218 3.62274L204.84 7.24089L208.46 3.62171L204.839 0.00356279Z" fill="#10FB06"/>
<path d="M204.84 28.736L201.22 32.3552L204.841 35.9734L208.462 32.3542L204.84 28.736Z" fill="#10FB06"/>
<path d="M204.842 57.4686L201.222 61.0878L204.843 64.7059L208.464 61.0867L204.842 57.4686Z" fill="#10FB06"/>
<path d="M204.838 86.1961L201.218 89.8152L204.839 93.4334L208.46 89.8142L204.838 86.1961Z" fill="#10FB06"/>
<path d="M204.838 114.945L201.222 118.558L204.838 122.172L208.454 118.558L204.838 114.945Z" fill="#10FB06"/>
<path d="M204.839 143.678L201.223 147.292L204.839 150.905L208.455 147.292L204.839 143.678Z" fill="#10FB06"/>
<path d="M204.834 172.407L201.218 176.02L204.834 179.634L208.45 176.02L204.834 172.407Z" fill="#10FB06"/>
<path d="M204.834 201.126L201.219 204.74L204.835 208.353L208.451 204.739L204.834 201.126Z" fill="#10FB06"/>
<path d="M204.836 229.859L201.22 233.473L204.837 237.086L208.452 233.472L204.836 229.859Z" fill="#10FB06"/>
<path d="M204.832 258.586L201.217 262.2L204.833 265.813L208.449 262.199L204.832 258.586Z" fill="#10FB06"/>
<path d="M32.3438 0.00271596L28.7233 3.62189L32.3448 7.24003L35.9653 3.62086L32.3438 0.00271596Z" fill="#10FB06"/>
<path d="M32.3454 28.7352L28.7249 32.3544L32.3464 35.9725L35.9669 32.3533L32.3454 28.7352Z" fill="#10FB06"/>
<path d="M32.347 57.4677L28.7265 61.0869L32.348 64.7051L35.9684 61.0859L32.347 57.4677Z" fill="#10FB06"/>
<path d="M32.3434 86.1952L28.7229 89.8143L32.3444 93.4325L35.9648 89.8133L32.3434 86.1952Z" fill="#10FB06"/>
<path d="M32.3449 114.928L28.7244 118.547L32.3459 122.165L35.9664 118.546L32.3449 114.928Z" fill="#10FB06"/>
<path d="M32.3378 143.671L28.7219 147.285L32.3378 150.899L35.9537 147.285L32.3378 143.671Z" fill="#10FB06"/>
<path d="M32.3333 172.4L28.7174 176.013L32.3333 179.627L35.9492 176.013L32.3333 172.4Z" fill="#10FB06"/>
<path d="M32.3338 201.133L28.718 204.747L32.3338 208.36L35.9497 204.747L32.3338 201.133Z" fill="#10FB06"/>
<path d="M32.3343 229.867L28.7184 233.48L32.3343 237.094L35.9502 233.48L32.3343 229.867Z" fill="#10FB06"/>
<path d="M32.3372 258.585L28.7219 262.199L32.3383 265.812L35.9536 262.198L32.3372 258.585Z" fill="#10FB06"/>
<path d="M233.59 0.0020521L229.969 3.62122L233.591 7.23936L237.211 3.6202L233.59 0.0020521Z" fill="#10FB06"/>
<path d="M233.591 28.7345L229.971 32.3537L233.592 35.9718L237.213 32.3527L233.591 28.7345Z" fill="#10FB06"/>
<path d="M233.593 57.4671L229.972 61.0862L233.594 64.7044L237.214 61.0852L233.593 57.4671Z" fill="#10FB06"/>
<path d="M233.589 86.1944L229.969 89.8136L233.59 93.4317L237.211 89.8126L233.589 86.1944Z" fill="#10FB06"/>
<path d="M233.59 114.944L229.974 118.558L233.59 122.171L237.206 118.558L233.59 114.944Z" fill="#10FB06"/>
<path d="M233.591 143.678L229.975 147.291L233.591 150.905L237.207 147.291L233.591 143.678Z" fill="#10FB06"/>
<path d="M233.586 172.406L229.97 176.02L233.586 179.633L237.202 176.02L233.586 172.406Z" fill="#10FB06"/>
<path d="M233.585 201.125L229.97 204.739L233.586 208.352L237.201 204.738L233.585 201.125Z" fill="#10FB06"/>
<path d="M233.587 229.857L229.971 233.471L233.588 237.084L237.203 233.47L233.587 229.857Z" fill="#10FB06"/>
<path d="M233.583 258.584L229.968 262.199L233.584 265.812L237.2 262.198L233.583 258.584Z" fill="#10FB06"/>
<path d="M61.0946 0.00112904L57.4741 3.6203L61.0956 7.23845L64.7161 3.61928L61.0946 0.00112904Z" fill="#10FB06"/>
<path d="M61.0962 28.7337L57.4758 32.3528L61.0973 35.971L64.7177 32.3518L61.0962 28.7337Z" fill="#10FB06"/>
<path d="M61.0978 57.4662L57.4774 61.0853L61.0988 64.7035L64.7193 61.0843L61.0978 57.4662Z" fill="#10FB06"/>
<path d="M61.0942 86.1936L57.4737 89.8127L61.0952 93.4309L64.7156 89.8117L61.0942 86.1936Z" fill="#10FB06"/>
<path d="M61.0958 114.926L57.4753 118.545L61.0968 122.163L64.7173 118.544L61.0958 114.926Z" fill="#10FB06"/>
<path d="M61.0896 143.671L57.4738 147.284L61.0896 150.898L64.7055 147.284L61.0896 143.671Z" fill="#10FB06"/>
<path d="M61.0851 172.399L57.4692 176.013L61.0851 179.626L64.701 176.013L61.0851 172.399Z" fill="#10FB06"/>
<path d="M61.0857 201.133L57.4698 204.746L61.0857 208.36L64.7016 204.746L61.0857 201.133Z" fill="#10FB06"/>
<path d="M61.0863 229.866L57.4704 233.48L61.0863 237.093L64.7022 233.48L61.0863 229.866Z" fill="#10FB06"/>
<path d="M61.0881 258.584L57.4727 262.198L61.0891 265.811L64.7045 262.197L61.0881 258.584Z" fill="#10FB06"/>
<path d="M262.35 0.00987247L258.729 3.62854L262.35 7.2472L265.971 3.62853L262.35 0.00987247Z" fill="#10FB06"/>
<path d="M262.351 28.7433L258.73 32.362L262.351 35.9807L265.972 32.362L262.351 28.7433Z" fill="#10FB06"/>
<path d="M262.351 57.4768L258.73 61.0955L262.351 64.7141L265.972 61.0955L262.351 57.4768Z" fill="#10FB06"/>
<path d="M262.347 86.2052L258.726 89.8239L262.347 93.4425L265.968 89.8238L262.347 86.2052Z" fill="#10FB06"/>
<path d="M262.333 114.919L258.717 118.532L262.333 122.146L265.948 118.532L262.333 114.919Z" fill="#10FB06"/>
<path d="M262.335 143.65L258.719 147.264L262.335 150.878L265.951 147.264L262.335 143.65Z" fill="#10FB06"/>
<path d="M262.332 172.377L258.716 175.99L262.332 179.604L265.948 175.99L262.332 172.377Z" fill="#10FB06"/>
<path d="M262.339 201.139L258.723 204.753L262.339 208.366L265.954 204.753L262.339 201.139Z" fill="#10FB06"/>
<path d="M262.339 229.873L258.723 233.486L262.339 237.1L265.955 233.486L262.339 229.873Z" fill="#10FB06"/>
<path d="M262.335 258.601L258.719 262.215L262.335 265.828L265.951 262.215L262.335 258.601Z" fill="#10FB06"/>
<path d="M89.8491 0.00304868L86.2281 3.6217L89.8491 7.24036L93.4701 3.62171L89.8491 0.00304868Z" fill="#10FB06"/>
<path d="M89.8497 28.7365L86.2287 32.3552L89.8497 35.9738L93.4706 32.3552L89.8497 28.7365Z" fill="#10FB06"/>
<path d="M89.8502 57.47L86.2292 61.0887L89.8502 64.7073L93.4712 61.0887L89.8502 57.47Z" fill="#10FB06"/>
<path d="M89.8457 86.1984L86.2247 89.8171L89.8457 93.4357L93.4667 89.8171L89.8457 86.1984Z" fill="#10FB06"/>
<path d="M89.8462 114.932L86.2253 118.551L89.8463 122.169L93.4672 118.551L89.8462 114.932Z" fill="#10FB06"/>
<path d="M89.8454 143.655L86.2295 147.268L89.8454 150.882L93.4613 147.268L89.8454 143.655Z" fill="#10FB06"/>
<path d="M89.8427 172.381L86.2269 175.995L89.8428 179.609L93.4586 175.995L89.8427 172.381Z" fill="#10FB06"/>
<path d="M89.8452 201.113L86.2294 204.727L89.8452 208.34L93.4611 204.727L89.8452 201.113Z" fill="#10FB06"/>
<path d="M89.8477 229.845L86.2318 233.458L89.8477 237.072L93.4636 233.458L89.8477 229.845Z" fill="#10FB06"/>
<path d="M89.8337 258.594L86.2178 262.208L89.8337 265.821L93.4496 262.208L89.8337 258.594Z" fill="#10FB06"/>
<path d="M118.601 0.00243437L114.98 3.62109L118.601 7.23975L122.222 3.62109L118.601 0.00243437Z" fill="#10FB06"/>
<path d="M118.602 28.736L114.981 32.3547L118.602 35.9733L122.222 32.3547L118.602 28.736Z" fill="#10FB06"/>
<path d="M118.602 57.4695L114.981 61.0881L118.602 64.7068L122.223 61.0881L118.602 57.4695Z" fill="#10FB06"/>
<path d="M118.598 86.1978L114.977 89.8165L118.598 93.4351L122.219 89.8165L118.598 86.1978Z" fill="#10FB06"/>
<path d="M118.598 114.931L114.977 118.55L118.598 122.169L122.219 118.55L118.598 114.931Z" fill="#10FB06"/>
<path d="M118.595 143.652L114.979 147.266L118.595 150.88L122.211 147.266L118.595 143.652Z" fill="#10FB06"/>
<path d="M118.593 172.379L114.977 175.993L118.593 179.606L122.209 175.993L118.593 172.379Z" fill="#10FB06"/>
<path d="M118.595 201.111L114.979 204.724L118.595 208.338L122.211 204.724L118.595 201.111Z" fill="#10FB06"/>
<path d="M118.598 229.842L114.982 233.456L118.598 237.069L122.214 233.456L118.598 229.842Z" fill="#10FB06"/>
<path d="M118.586 258.594L114.97 262.207L118.586 265.821L122.201 262.207L118.586 258.594Z" fill="#10FB06"/>
<path d="M147.348 0.00701202L143.727 3.62567L147.348 7.24433L150.969 3.62567L147.348 0.00701202Z" fill="#10FB06"/>
<path d="M147.348 28.7405L143.727 32.3591L147.348 35.9778L150.969 32.3591L147.348 28.7405Z" fill="#10FB06"/>
<path d="M147.349 57.4739L143.728 61.0926L147.349 64.7112L150.97 61.0926L147.349 57.4739Z" fill="#10FB06"/>
<path d="M147.344 86.2024L143.723 89.821L147.344 93.4397L150.965 89.821L147.344 86.2024Z" fill="#10FB06"/>
<path d="M147.345 114.936L143.724 118.555L147.345 122.173L150.966 118.555L147.345 114.936Z" fill="#10FB06"/>
<path d="M147.34 143.655L143.724 147.269L147.34 150.882L150.956 147.269L147.34 143.655Z" fill="#10FB06"/>
<path d="M147.338 172.382L143.722 175.995L147.338 179.609L150.953 175.995L147.338 172.382Z" fill="#10FB06"/>
<path d="M147.34 201.113L143.724 204.727L147.34 208.34L150.956 204.727L147.34 201.113Z" fill="#10FB06"/>
<path d="M147.343 229.845L143.727 233.458L147.343 237.072L150.958 233.458L147.343 229.845Z" fill="#10FB06"/>
<path d="M147.332 258.598L143.716 262.212L147.332 265.825L150.948 262.212L147.332 258.598Z" fill="#10FB06"/>
<path d="M291.086 0.00405077L287.466 3.62323L291.087 7.24138L294.708 3.6222L291.086 0.00405077Z" fill="#10FB06"/>
<path d="M291.088 28.7365L287.467 32.3557L291.089 35.9739L294.709 32.3547L291.088 28.7365Z" fill="#10FB06"/>
<path d="M291.089 57.469L287.469 61.0882L291.09 64.7063L294.711 61.0872L291.089 57.469Z" fill="#10FB06"/>
<path d="M291.086 86.1965L287.466 89.8157L291.087 93.4338L294.708 89.8146L291.086 86.1965Z" fill="#10FB06"/>
<path d="M291.088 114.929L287.467 118.548L291.089 122.166L294.709 118.547L291.088 114.929Z" fill="#10FB06"/>
<path d="M291.089 143.682L287.473 147.295L291.089 150.909L294.705 147.295L291.089 143.682Z" fill="#10FB06"/>
<path d="M291.085 172.41L287.469 176.024L291.085 179.637L294.701 176.024L291.085 172.41Z" fill="#10FB06"/>
<path d="M291.085 201.144L287.469 204.757L291.085 208.371L294.701 204.757L291.085 201.144Z" fill="#10FB06"/>
<path d="M291.086 229.877L287.47 233.491L291.086 237.104L294.702 233.491L291.086 229.877Z" fill="#10FB06"/>
<path d="M291.08 258.587L287.465 262.201L291.081 265.814L294.696 262.2L291.08 258.587Z" fill="#10FB06"/>
<path d="M319.837 0.00241831L316.217 3.62158L319.838 7.23973L323.459 3.62057L319.837 0.00241831Z" fill="#10FB06"/>
<path d="M319.839 28.735L316.218 32.3541L319.84 35.9723L323.46 32.3531L319.839 28.735Z" fill="#10FB06"/>
<path d="M319.84 57.4675L316.22 61.0867L319.841 64.7048L323.462 61.0857L319.84 57.4675Z" fill="#10FB06"/>
<path d="M319.837 86.1949L316.216 89.814L319.838 93.4322L323.458 89.813L319.837 86.1949Z" fill="#10FB06"/>
<path d="M319.838 114.927L316.218 118.547L319.839 122.165L323.46 118.546L319.838 114.927Z" fill="#10FB06"/>
<path d="M319.841 143.681L316.225 147.295L319.841 150.908L323.457 147.295L319.841 143.681Z" fill="#10FB06"/>
<path d="M319.837 172.41L316.221 176.023L319.837 179.637L323.453 176.023L319.837 172.41Z" fill="#10FB06"/>
<path d="M319.837 201.143L316.221 204.757L319.837 208.37L323.453 204.757L319.837 201.143Z" fill="#10FB06"/>
<path d="M319.838 229.876L316.222 233.49L319.838 237.104L323.454 233.49L319.838 229.876Z" fill="#10FB06"/>
<path d="M319.831 258.585L316.215 262.199L319.832 265.812L323.447 262.198L319.831 258.585Z" fill="#10FB06"/>
<path d="M348.601 0.0131684L344.98 3.63184L348.601 7.2505L352.222 3.63183L348.601 0.0131684Z" fill="#10FB06"/>
<path d="M348.601 28.7467L344.98 32.3654L348.601 35.984L352.222 32.3653L348.601 28.7467Z" fill="#10FB06"/>
<path d="M348.602 57.4802L344.981 61.0989L348.602 64.7175L352.223 61.0989L348.602 57.4802Z" fill="#10FB06"/>
<path d="M348.597 86.2086L344.976 89.8273L348.597 93.4459L352.218 89.8273L348.597 86.2086Z" fill="#10FB06"/>
<path d="M348.598 114.942L344.977 118.561L348.598 122.179L352.219 118.561L348.598 114.942Z" fill="#10FB06"/>
<path d="M348.58 143.648L344.964 147.262L348.58 150.875L352.196 147.262L348.58 143.648Z" fill="#10FB06"/>
<path d="M348.577 172.375L344.961 175.988L348.577 179.602L352.193 175.988L348.577 172.375Z" fill="#10FB06"/>
<path d="M348.58 201.106L344.964 204.72L348.58 208.333L352.196 204.72L348.58 201.106Z" fill="#10FB06"/>
<path d="M348.582 229.838L344.966 233.451L348.582 237.065L352.198 233.451L348.582 229.838Z" fill="#10FB06"/>
<path d="M348.585 258.604L344.969 262.218L348.585 265.832L352.201 262.218L348.585 258.604Z" fill="#10FB06"/>
<path d="M377.352 0.0126646L373.731 3.63135L377.352 7.25001L380.973 3.63132L377.352 0.0126646Z" fill="#10FB06"/>
<path d="M377.353 28.7461L373.732 32.3648L377.353 35.9835L380.974 32.3648L377.353 28.7461Z" fill="#10FB06"/>
<path d="M377.354 57.4796L373.733 61.0983L377.354 64.7169L380.974 61.0982L377.354 57.4796Z" fill="#10FB06"/>
<path d="M377.349 86.208L373.728 89.8267L377.349 93.4454L380.97 89.8267L377.349 86.208Z" fill="#10FB06"/>
<path d="M377.35 114.942L373.729 118.56L377.35 122.179L380.971 118.56L377.35 114.942Z" fill="#10FB06"/>
<path d="M377.33 143.646L373.714 147.259L377.33 150.873L380.946 147.259L377.33 143.646Z" fill="#10FB06"/>
<path d="M377.327 172.372L373.711 175.986L377.327 179.599L380.943 175.986L377.327 172.372Z" fill="#10FB06"/>
<path d="M377.33 201.104L373.714 204.717L377.33 208.331L380.946 204.717L377.33 201.104Z" fill="#10FB06"/>
<path d="M377.332 229.835L373.716 233.449L377.332 237.062L380.948 233.449L377.332 229.835Z" fill="#10FB06"/>
<path d="M377.337 258.604L373.721 262.218L377.337 265.831L380.953 262.218L377.337 258.604Z" fill="#10FB06"/>
<path d="M176.156 287.378L172.536 290.997L176.157 294.615L179.777 290.996L176.156 287.378Z" fill="#10FB06"/>
<path d="M176.157 316.11L172.537 319.729L176.158 323.347L179.779 319.728L176.157 316.11Z" fill="#10FB06"/>
<path d="M176.159 344.843L172.539 348.462L176.16 352.08L179.78 348.461L176.159 344.843Z" fill="#10FB06"/>
<path d="M3.62467 287.376L0.00421143 290.996L3.62569 294.614L7.24615 290.995L3.62467 287.376Z" fill="#10FB06"/>
<path d="M3.6262 316.109L0.0057373 319.728L3.62723 323.346L7.24769 319.727L3.6262 316.109Z" fill="#10FB06"/>
<path d="M3.62772 344.841L0.00726318 348.461L3.62874 352.079L7.2492 348.46L3.62772 344.841Z" fill="#10FB06"/>
<path d="M204.907 287.376L201.286 290.995L204.908 294.613L208.528 290.994L204.907 287.376Z" fill="#10FB06"/>
<path d="M204.908 316.109L201.288 319.728L204.909 323.346L208.53 319.727L204.908 316.109Z" fill="#10FB06"/>
<path d="M204.91 344.841L201.289 348.46L204.911 352.078L208.531 348.459L204.91 344.841Z" fill="#10FB06"/>
<path d="M32.4117 287.375L28.7913 290.994L32.4127 294.613L36.0332 290.993L32.4117 287.375Z" fill="#10FB06"/>
<path d="M32.4132 316.108L28.7928 319.727L32.4143 323.345L36.0347 319.726L32.4132 316.108Z" fill="#10FB06"/>
<path d="M32.4147 344.84L28.7943 348.459L32.4157 352.078L36.0362 348.458L32.4147 344.84Z" fill="#10FB06"/>
<path d="M233.653 287.38L230.032 290.999L233.654 294.617L237.274 290.998L233.653 287.38Z" fill="#10FB06"/>
<path d="M233.654 316.112L230.034 319.731L233.655 323.349L237.276 319.73L233.654 316.112Z" fill="#10FB06"/>
<path d="M233.656 344.845L230.035 348.464L233.657 352.082L237.277 348.463L233.656 344.845Z" fill="#10FB06"/>
<path d="M61.1575 287.379L57.537 290.998L61.1585 294.616L64.7789 290.997L61.1575 287.379Z" fill="#10FB06"/>
<path d="M61.159 316.111L57.5386 319.73L61.1601 323.349L64.7805 319.729L61.159 316.111Z" fill="#10FB06"/>
<path d="M61.1606 344.844L57.5401 348.463L61.1616 352.081L64.782 348.462L61.1606 344.844Z" fill="#10FB06"/>
<path d="M262.403 287.397L258.782 291.016L262.403 294.635L266.024 291.016L262.403 287.397Z" fill="#10FB06"/>
<path d="M262.404 316.131L258.783 319.749L262.404 323.368L266.025 319.749L262.404 316.131Z" fill="#10FB06"/>
<path d="M262.404 344.864L258.783 348.483L262.404 352.102L266.025 348.483L262.404 344.864Z" fill="#10FB06"/>
<path d="M89.902 287.39L86.2811 291.009L89.902 294.628L93.523 291.009L89.902 287.39Z" fill="#10FB06"/>
<path d="M89.9027 316.124L86.2817 319.743L89.9027 323.361L93.5236 319.743L89.9027 316.124Z" fill="#10FB06"/>
<path d="M89.9032 344.857L86.2822 348.476L89.9032 352.095L93.5242 348.476L89.9032 344.857Z" fill="#10FB06"/>
<path d="M118.654 287.39L115.033 291.009L118.654 294.627L122.275 291.009L118.654 287.39Z" fill="#10FB06"/>
<path d="M118.654 316.123L115.034 319.742L118.654 323.361L122.275 319.742L118.654 316.123Z" fill="#10FB06"/>
<path d="M118.655 344.857L115.034 348.476L118.655 352.094L122.276 348.476L118.655 344.857Z" fill="#10FB06"/>
<path d="M147.406 287.389L143.785 291.008L147.406 294.627L151.027 291.008L147.406 287.389Z" fill="#10FB06"/>
<path d="M147.406 316.123L143.785 319.742L147.406 323.36L151.027 319.742L147.406 316.123Z" fill="#10FB06"/>
<path d="M147.407 344.856L143.786 348.475L147.407 352.094L151.028 348.475L147.407 344.856Z" fill="#10FB06"/>
<path d="M291.154 287.377L287.534 290.996L291.155 294.614L294.776 290.995L291.154 287.377Z" fill="#10FB06"/>
<path d="M291.156 316.109L287.535 319.728L291.157 323.346L294.777 319.727L291.156 316.109Z" fill="#10FB06"/>
<path d="M291.157 344.841L287.537 348.461L291.158 352.079L294.779 348.46L291.157 344.841Z" fill="#10FB06"/>
<path d="M319.9 287.38L316.28 290.999L319.901 294.617L323.522 290.998L319.9 287.38Z" fill="#10FB06"/>
<path d="M319.901 316.113L316.281 319.732L319.902 323.35L323.523 319.731L319.901 316.113Z" fill="#10FB06"/>
<path d="M319.903 344.845L316.283 348.464L319.904 352.082L323.525 348.463L319.903 344.845Z" fill="#10FB06"/>
<path d="M348.654 287.401L345.033 291.019L348.654 294.638L352.275 291.019L348.654 287.401Z" fill="#10FB06"/>
<path d="M348.654 316.134L345.033 319.753L348.654 323.371L352.275 319.753L348.654 316.134Z" fill="#10FB06"/>
<path d="M348.655 344.868L345.034 348.486L348.655 352.105L352.276 348.486L348.655 344.868Z" fill="#10FB06"/>
<path d="M377.405 287.4L373.784 291.019L377.405 294.637L381.026 291.019L377.405 287.4Z" fill="#10FB06"/>
<path d="M377.406 316.133L373.785 319.752L377.406 323.371L381.027 319.752L377.406 316.133Z" fill="#10FB06"/>
<path d="M377.406 344.867L373.786 348.486L377.406 352.104L381.027 348.486L377.406 344.867Z" fill="#10FB06"/>
<path d="M549.8 0.00394419L546.179 3.62311L549.801 7.24126L553.421 3.62209L549.8 0.00394419Z" fill="#10FB06"/>
<path d="M549.801 28.7365L546.181 32.3557L549.802 35.9738L553.423 32.3546L549.801 28.7365Z" fill="#10FB06"/>
<path d="M549.803 57.469L546.182 61.0881L549.804 64.7063L553.424 61.0871L549.803 57.469Z" fill="#10FB06"/>
<path d="M549.799 86.1965L546.179 89.8156L549.8 93.4338L553.421 89.8146L549.799 86.1965Z" fill="#10FB06"/>
<path d="M549.811 114.957L546.195 118.571L549.811 122.184L553.427 118.571L549.811 114.957Z" fill="#10FB06"/>
<path d="M549.811 143.69L546.196 147.304L549.811 150.918L553.427 147.304L549.811 143.69Z" fill="#10FB06"/>
<path d="M549.807 172.419L546.191 176.032L549.807 179.646L553.423 176.032L549.807 172.419Z" fill="#10FB06"/>
<path d="M549.795 201.127L546.18 204.741L549.796 208.354L553.411 204.74L549.795 201.127Z" fill="#10FB06"/>
<path d="M549.797 229.859L546.181 233.473L549.798 237.086L553.413 233.472L549.797 229.859Z" fill="#10FB06"/>
<path d="M549.793 258.586L546.178 262.2L549.794 265.814L553.409 262.199L549.793 258.586Z" fill="#10FB06"/>
<path d="M578.551 0.00238733L574.93 3.62158L578.552 7.23973L582.172 3.62054L578.551 0.00238733Z" fill="#10FB06"/>
<path d="M578.552 28.7349L574.932 32.3541L578.553 35.9723L582.174 32.3531L578.552 28.7349Z" fill="#10FB06"/>
<path d="M578.554 57.4674L574.933 61.0866L578.555 64.7048L582.175 61.0856L578.554 57.4674Z" fill="#10FB06"/>
<path d="M578.55 86.1948L574.93 89.814L578.551 93.4322L582.172 89.813L578.55 86.1948Z" fill="#10FB06"/>
<path d="M578.563 114.956L574.947 118.57L578.563 122.184L582.178 118.57L578.563 114.956Z" fill="#10FB06"/>
<path d="M578.563 143.69L574.947 147.303L578.563 150.917L582.179 147.303L578.563 143.69Z" fill="#10FB06"/>
<path d="M578.559 172.418L574.943 176.032L578.559 179.645L582.175 176.032L578.559 172.418Z" fill="#10FB06"/>
<path d="M578.546 201.125L574.931 204.739L578.547 208.352L582.162 204.738L578.546 201.125Z" fill="#10FB06"/>
<path d="M578.548 229.857L574.932 233.472L578.549 237.085L582.164 233.471L578.548 229.857Z" fill="#10FB06"/>
<path d="M578.544 258.585L574.928 262.199L578.545 265.812L582.16 262.198L578.544 258.585Z" fill="#10FB06"/>
<path d="M406.055 0.00153284L402.435 3.62073L406.056 7.23888L409.677 3.61968L406.055 0.00153284Z" fill="#10FB06"/>
<path d="M406.057 28.7341L402.437 32.3533L406.058 35.9714L409.678 32.3522L406.057 28.7341Z" fill="#10FB06"/>
<path d="M406.058 57.4666L402.438 61.0858L406.059 64.7039L409.68 61.0847L406.058 57.4666Z" fill="#10FB06"/>
<path d="M406.055 86.194L402.435 89.8132L406.056 93.4314L409.677 89.8122L406.055 86.194Z" fill="#10FB06"/>
<path d="M406.057 114.926L402.436 118.546L406.058 122.164L409.678 118.545L406.057 114.926Z" fill="#10FB06"/>
<path d="M406.062 143.683L402.446 147.297L406.062 150.91L409.678 147.297L406.062 143.683Z" fill="#10FB06"/>
<path d="M406.058 172.411L402.442 176.025L406.058 179.639L409.674 176.025L406.058 172.411Z" fill="#10FB06"/>
<path d="M406.058 201.145L402.442 204.759L406.058 208.372L409.674 204.759L406.058 201.145Z" fill="#10FB06"/>
<path d="M406.059 229.878L402.443 233.492L406.059 237.106L409.675 233.492L406.059 229.878Z" fill="#10FB06"/>
<path d="M406.049 258.584L402.433 262.198L406.05 265.811L409.665 262.197L406.049 258.584Z" fill="#10FB06"/>
<path d="M607.301 0.000893073L603.681 3.62006L607.302 7.2382L610.923 3.61904L607.301 0.000893073Z" fill="#10FB06"/>
<path d="M607.303 28.7334L603.682 32.3525L607.304 35.9707L610.924 32.3515L607.303 28.7334Z" fill="#10FB06"/>
<path d="M607.305 57.4659L603.684 61.085L607.306 64.7032L610.926 61.084L607.305 57.4659Z" fill="#10FB06"/>
<path d="M607.301 86.1933L603.68 89.8124L607.302 93.4306L610.922 89.8114L607.301 86.1933Z" fill="#10FB06"/>
<path d="M607.315 114.956L603.699 118.569L607.315 122.183L610.93 118.569L607.315 114.956Z" fill="#10FB06"/>
<path d="M607.315 143.689L603.699 147.303L607.315 150.916L610.931 147.303L607.315 143.689Z" fill="#10FB06"/>
<path d="M607.311 172.418L603.695 176.031L607.311 179.645L610.926 176.031L607.311 172.418Z" fill="#10FB06"/>
<path d="M607.297 201.123L603.682 204.737L607.298 208.351L610.913 204.736L607.297 201.123Z" fill="#10FB06"/>
<path d="M607.298 229.856L603.683 233.47L607.299 237.083L610.915 233.469L607.298 229.856Z" fill="#10FB06"/>
<path d="M607.295 258.583L603.679 262.197L607.296 265.81L610.911 262.196L607.295 258.583Z" fill="#10FB06"/>
<path d="M434.806 -2.24539e-05L431.186 3.61914L434.807 7.23729L438.428 3.61812L434.806 -2.24539e-05Z" fill="#10FB06"/>
<path d="M434.808 28.7325L431.188 32.3516L434.809 35.9698L438.429 32.3506L434.808 28.7325Z" fill="#10FB06"/>
<path d="M434.809 57.4651L431.189 61.0842L434.81 64.7024L438.431 61.0832L434.809 57.4651Z" fill="#10FB06"/>
<path d="M434.806 86.1924L431.185 89.8116L434.807 93.4297L438.427 89.8106L434.806 86.1924Z" fill="#10FB06"/>
<path d="M434.807 114.925L431.187 118.544L434.808 122.162L438.429 118.543L434.807 114.925Z" fill="#10FB06"/>
<path d="M434.814 143.682L431.198 147.296L434.814 150.91L438.43 147.296L434.814 143.682Z" fill="#10FB06"/>
<path d="M434.81 172.411L431.194 176.024L434.81 179.638L438.425 176.024L434.81 172.411Z" fill="#10FB06"/>
<path d="M434.81 201.144L431.194 204.758L434.81 208.372L438.426 204.758L434.81 201.144Z" fill="#10FB06"/>
<path d="M434.811 229.878L431.195 233.491L434.811 237.105L438.427 233.491L434.811 229.878Z" fill="#10FB06"/>
<path d="M434.8 258.582L431.184 262.197L434.801 265.81L438.416 262.195L434.8 258.582Z" fill="#10FB06"/>
<path d="M636.069 0.0265509L632.448 3.6452L636.069 7.26386L639.69 3.64521L636.069 0.0265509Z" fill="#10FB06"/>
<path d="M636.07 28.76L632.449 32.3787L636.07 35.9973L639.691 32.3787L636.07 28.76Z" fill="#10FB06"/>
<path d="M636.071 57.4935L632.45 61.1121L636.071 64.7308L639.692 61.1121L636.071 57.4935Z" fill="#10FB06"/>
<path d="M636.066 86.222L632.445 89.8406L636.066 93.4593L639.687 89.8406L636.066 86.222Z" fill="#10FB06"/>
<path d="M636.027 114.911L632.411 118.525L636.027 122.138L639.643 118.525L636.027 114.911Z" fill="#10FB06"/>
<path d="M636.03 143.643L632.414 147.256L636.03 150.87L639.646 147.256L636.03 143.643Z" fill="#10FB06"/>
<path d="M636.027 172.369L632.411 175.983L636.027 179.596L639.643 175.983L636.027 172.369Z" fill="#10FB06"/>
<path d="M636.058 201.156L632.442 204.77L636.058 208.383L639.674 204.77L636.058 201.156Z" fill="#10FB06"/>
<path d="M636.059 229.889L632.443 233.503L636.058 237.117L639.674 233.503L636.059 229.889Z" fill="#10FB06"/>
<path d="M636.054 258.618L632.438 262.231L636.054 265.845L639.67 262.231L636.054 258.618Z" fill="#10FB06"/>
<path d="M463.568 0.0197763L459.947 3.63843L463.568 7.25709L467.189 3.63844L463.568 0.0197763Z" fill="#10FB06"/>
<path d="M463.569 28.7532L459.948 32.3719L463.569 35.9905L467.19 32.3719L463.569 28.7532Z" fill="#10FB06"/>
<path d="M463.57 57.4868L459.949 61.1055L463.57 64.7241L467.191 61.1055L463.57 57.4868Z" fill="#10FB06"/>
<path d="M463.565 86.2151L459.944 89.8338L463.565 93.4525L467.186 89.8338L463.565 86.2151Z" fill="#10FB06"/>
<path d="M463.566 114.949L459.945 118.567L463.566 122.186L467.186 118.567L463.566 114.949Z" fill="#10FB06"/>
<path d="M463.54 143.647L459.924 147.261L463.54 150.874L467.156 147.261L463.54 143.647Z" fill="#10FB06"/>
<path d="M463.538 172.374L459.922 175.987L463.538 179.601L467.153 175.987L463.538 172.374Z" fill="#10FB06"/>
<path d="M463.54 201.105L459.924 204.719L463.54 208.332L467.156 204.719L463.54 201.105Z" fill="#10FB06"/>
<path d="M463.542 229.837L459.927 233.45L463.542 237.064L467.158 233.45L463.542 229.837Z" fill="#10FB06"/>
<path d="M463.553 258.611L459.937 262.225L463.553 265.838L467.169 262.225L463.553 258.611Z" fill="#10FB06"/>
<path d="M492.32 0.019196L488.699 3.63788L492.32 7.25654L495.941 3.63785L492.32 0.019196Z" fill="#10FB06"/>
<path d="M492.321 28.7527L488.7 32.3713L492.321 35.99L495.942 32.3713L492.321 28.7527Z" fill="#10FB06"/>
<path d="M492.321 57.4861L488.7 61.1048L492.321 64.7235L495.942 61.1048L492.321 57.4861Z" fill="#10FB06"/>
<path d="M492.317 86.2146L488.696 89.8333L492.317 93.4519L495.938 89.8332L492.317 86.2146Z" fill="#10FB06"/>
<path d="M492.318 114.948L488.697 118.567L492.318 122.185L495.939 118.567L492.318 114.948Z" fill="#10FB06"/>
<path d="M492.29 143.645L488.674 147.258L492.29 150.872L495.906 147.258L492.29 143.645Z" fill="#10FB06"/>
<path d="M492.287 172.371L488.672 175.985L492.287 179.598L495.903 175.985L492.287 172.371Z" fill="#10FB06"/>
<path d="M492.29 201.103L488.674 204.716L492.29 208.33L495.906 204.716L492.29 201.103Z" fill="#10FB06"/>
<path d="M492.292 229.834L488.677 233.448L492.292 237.062L495.908 233.448L492.292 229.834Z" fill="#10FB06"/>
<path d="M492.305 258.611L488.689 262.224L492.305 265.838L495.921 262.224L492.305 258.611Z" fill="#10FB06"/>
<path d="M521.072 0.0186163L517.451 3.63727L521.072 7.25593L524.693 3.63728L521.072 0.0186163Z" fill="#10FB06"/>
<path d="M521.073 28.7521L517.452 32.3707L521.073 35.9894L524.694 32.3707L521.073 28.7521Z" fill="#10FB06"/>
<path d="M521.073 57.4856L517.452 61.1042L521.073 64.7229L524.694 61.1043L521.073 57.4856Z" fill="#10FB06"/>
<path d="M521.069 86.214L517.448 89.8326L521.069 93.4513L524.69 89.8326L521.069 86.214Z" fill="#10FB06"/>
<path d="M521.069 114.948L517.448 118.566L521.069 122.185L524.69 118.566L521.069 114.948Z" fill="#10FB06"/>
<path d="M521.04 143.642L517.424 147.256L521.04 150.869L524.656 147.256L521.04 143.642Z" fill="#10FB06"/>
<path d="M521.037 172.369L517.422 175.982L521.037 179.596L524.653 175.982L521.037 172.369Z" fill="#10FB06"/>
<path d="M521.04 201.1L517.424 204.714L521.04 208.327L524.656 204.714L521.04 201.1Z" fill="#10FB06"/>
<path d="M521.042 229.832L517.427 233.445L521.042 237.059L524.658 233.446L521.042 229.832Z" fill="#10FB06"/>
<path d="M521.057 258.61L517.441 262.223L521.057 265.837L524.673 262.223L521.057 258.61Z" fill="#10FB06"/>
<path d="M664.798 0.00281488L661.177 3.62201L664.799 7.24016L668.419 3.62096L664.798 0.00281488Z" fill="#10FB06"/>
<path d="M664.8 28.7354L661.179 32.3546L664.801 35.9727L668.421 32.3535L664.8 28.7354Z" fill="#10FB06"/>
<path d="M664.801 57.4679L661.181 61.0871L664.802 64.7052L668.423 61.0861L664.801 57.4679Z" fill="#10FB06"/>
<path d="M664.798 86.1953L661.177 89.8145L664.799 93.4327L668.419 89.8135L664.798 86.1953Z" fill="#10FB06"/>
<path d="M664.799 114.928L661.179 118.547L664.8 122.165L668.421 118.546L664.799 114.928Z" fill="#10FB06"/>
<path d="M664.814 143.693L661.198 147.307L664.814 150.92L668.43 147.307L664.814 143.693Z" fill="#10FB06"/>
<path d="M664.809 172.422L661.193 176.035L664.809 179.649L668.425 176.035L664.809 172.422Z" fill="#10FB06"/>
<path d="M664.81 201.155L661.194 204.769L664.81 208.382L668.426 204.769L664.81 201.155Z" fill="#10FB06"/>
<path d="M664.81 229.889L661.194 233.502L664.81 237.116L668.426 233.502L664.81 229.889Z" fill="#10FB06"/>
<path d="M664.792 258.585L661.176 262.199L664.793 265.813L668.408 262.198L664.792 258.585Z" fill="#10FB06"/>
<path d="M693.549 0.00131968L689.928 3.62048L693.55 7.23863L697.17 3.61947L693.549 0.00131968Z" fill="#10FB06"/>
<path d="M693.55 28.7338L689.93 32.353L693.551 35.9711L697.172 32.352L693.55 28.7338Z" fill="#10FB06"/>
<path d="M693.552 57.4663L689.932 61.0854L693.553 64.7036L697.174 61.0844L693.552 57.4663Z" fill="#10FB06"/>
<path d="M693.548 86.1938L689.928 89.8129L693.549 93.4311L697.17 89.8119L693.548 86.1938Z" fill="#10FB06"/>
<path d="M693.55 114.926L689.93 118.545L693.551 122.164L697.171 118.544L693.55 114.926Z" fill="#10FB06"/>
<path d="M693.566 143.693L689.95 147.306L693.566 150.92L697.181 147.306L693.566 143.693Z" fill="#10FB06"/>
<path d="M693.561 172.421L689.945 176.035L693.561 179.648L697.177 176.035L693.561 172.421Z" fill="#10FB06"/>
<path d="M693.562 201.155L689.946 204.768L693.562 208.382L697.177 204.768L693.562 201.155Z" fill="#10FB06"/>
<path d="M693.562 229.888L689.946 233.502L693.562 237.115L697.178 233.502L693.562 229.888Z" fill="#10FB06"/>
<path d="M693.542 258.584L689.927 262.198L693.543 265.811L697.159 262.197L693.542 258.584Z" fill="#10FB06"/>
<path d="M722.32 0.0299078L718.699 3.64856L722.32 7.26722L725.941 3.64857L722.32 0.0299078Z" fill="#10FB06"/>
<path d="M722.32 28.7635L718.699 32.3821L722.32 36.0008L725.941 32.3821L722.32 28.7635Z" fill="#10FB06"/>
<path d="M722.321 57.4969L718.7 61.1156L722.321 64.7343L725.942 61.1156L722.321 57.4969Z" fill="#10FB06"/>
<path d="M722.317 86.2253L718.696 89.844L722.317 93.4627L725.938 89.844L722.317 86.2253Z" fill="#10FB06"/>
<path d="M722.317 114.959L718.696 118.577L722.317 122.196L725.938 118.577L722.317 114.959Z" fill="#10FB06"/>
<path d="M722.275 143.64L718.659 147.254L722.275 150.867L725.89 147.254L722.275 143.64Z" fill="#10FB06"/>
<path d="M722.272 172.367L718.656 175.98L722.272 179.594L725.888 175.98L722.272 172.367Z" fill="#10FB06"/>
<path d="M722.275 201.098L718.659 204.712L722.275 208.326L725.89 204.712L722.275 201.098Z" fill="#10FB06"/>
<path d="M722.277 229.83L718.661 233.444L722.277 237.057L725.893 233.444L722.277 229.83Z" fill="#10FB06"/>
<path d="M722.305 258.621L718.689 262.235L722.304 265.848L725.92 262.235L722.305 258.621Z" fill="#10FB06"/>
<path d="M549.868 287.376L546.247 290.996L549.869 294.614L553.489 290.995L549.868 287.376Z" fill="#10FB06"/>
<path d="M549.869 316.109L546.249 319.728L549.87 323.346L553.491 319.727L549.869 316.109Z" fill="#10FB06"/>
<path d="M549.871 344.841L546.25 348.461L549.872 352.079L553.492 348.46L549.871 344.841Z" fill="#10FB06"/>
<path d="M578.613 287.38L574.993 290.999L578.614 294.617L582.235 290.998L578.613 287.38Z" fill="#10FB06"/>
<path d="M578.615 316.113L574.994 319.732L578.616 323.35L582.236 319.731L578.615 316.113Z" fill="#10FB06"/>
<path d="M578.616 344.845L574.996 348.464L578.617 352.082L582.238 348.463L578.616 344.845Z" fill="#10FB06"/>
<path d="M406.118 287.379L402.498 290.998L406.119 294.616L409.74 290.997L406.118 287.379Z" fill="#10FB06"/>
<path d="M406.12 316.112L402.499 319.731L406.121 323.349L409.741 319.73L406.12 316.112Z" fill="#10FB06"/>
<path d="M406.121 344.844L402.501 348.463L406.122 352.081L409.743 348.462L406.121 344.844Z" fill="#10FB06"/>
<path d="M607.364 287.378L603.744 290.998L607.365 294.616L610.986 290.997L607.364 287.378Z" fill="#10FB06"/>
<path d="M607.366 316.111L603.745 319.73L607.367 323.348L610.987 319.729L607.366 316.111Z" fill="#10FB06"/>
<path d="M607.367 344.843L603.747 348.463L607.368 352.081L610.989 348.462L607.367 344.843Z" fill="#10FB06"/>
<path d="M434.869 287.378L431.249 290.997L434.87 294.615L438.491 290.996L434.869 287.378Z" fill="#10FB06"/>
<path d="M434.871 316.11L431.25 319.729L434.872 323.347L438.492 319.728L434.871 316.11Z" fill="#10FB06"/>
<path d="M434.872 344.843L431.252 348.462L434.873 352.08L438.494 348.461L434.872 344.843Z" fill="#10FB06"/>
<path d="M636.127 287.409L632.506 291.028L636.127 294.646L639.748 291.028L636.127 287.409Z" fill="#10FB06"/>
<path d="M636.128 316.142L632.507 319.761L636.128 323.38L639.749 319.761L636.128 316.142Z" fill="#10FB06"/>
<path d="M636.129 344.876L632.508 348.495L636.129 352.113L639.75 348.495L636.129 344.876Z" fill="#10FB06"/>
<path d="M463.626 287.402L460.005 291.021L463.626 294.639L467.247 291.021L463.626 287.402Z" fill="#10FB06"/>
<path d="M463.627 316.136L460.006 319.754L463.627 323.373L467.248 319.754L463.627 316.136Z" fill="#10FB06"/>
<path d="M463.628 344.869L460.007 348.488L463.628 352.106L467.249 348.488L463.628 344.869Z" fill="#10FB06"/>
<path d="M492.373 287.407L488.752 291.025L492.373 294.644L495.994 291.025L492.373 287.407Z" fill="#10FB06"/>
<path d="M492.374 316.14L488.753 319.759L492.374 323.377L495.995 319.759L492.374 316.14Z" fill="#10FB06"/>
<path d="M492.374 344.874L488.753 348.492L492.374 352.111L495.995 348.492L492.374 344.874Z" fill="#10FB06"/>
<path d="M521.125 287.406L517.504 291.025L521.125 294.643L524.746 291.025L521.125 287.406Z" fill="#10FB06"/>
<path d="M521.126 316.14L517.505 319.758L521.126 323.377L524.747 319.758L521.126 316.14Z" fill="#10FB06"/>
<path d="M521.126 344.873L517.505 348.492L521.126 352.11L524.747 348.492L521.126 344.873Z" fill="#10FB06"/>
<path d="M664.861 287.38L661.24 291L664.862 294.618L668.482 290.999L664.861 287.38Z" fill="#10FB06"/>
<path d="M664.862 316.113L661.242 319.732L664.863 323.35L668.484 319.731L664.862 316.113Z" fill="#10FB06"/>
<path d="M664.864 344.845L661.243 348.465L664.865 352.083L668.485 348.464L664.864 344.845Z" fill="#10FB06"/>
<path d="M693.612 287.379L689.991 290.998L693.613 294.616L697.233 290.997L693.612 287.379Z" fill="#10FB06"/>
<path d="M693.613 316.111L689.993 319.731L693.614 323.349L697.235 319.73L693.613 316.111Z" fill="#10FB06"/>
<path d="M693.615 344.844L689.994 348.463L693.616 352.081L697.236 348.462L693.615 344.844Z" fill="#10FB06"/>
<path d="M722.378 287.412L718.757 291.031L722.378 294.65L725.999 291.031L722.378 287.412Z" fill="#10FB06"/>
<path d="M722.379 316.146L718.758 319.764L722.379 323.383L725.999 319.764L722.379 316.146Z" fill="#10FB06"/>
<path d="M722.379 344.879L718.758 348.498L722.379 352.117L726 348.498L722.379 344.879Z" fill="#10FB06"/>
</mask>
<g mask="url(#mask0)">
<rect x="-12" y="-8" width="750" height="368" fill="url(#paint0_linear)"/>
</g>
<defs>
<linearGradient id="paint0_linear" x1="363" y1="-8" x2="363" y2="360" gradientUnits="userSpaceOnUse">
<stop stop-color="#C4C4C4" stop-opacity="0.22"/>
<stop offset="0.296875" stop-color="#C4C4C4" stop-opacity="0.13"/>
<stop offset="0.90625" stop-color="#C4C4C4" stop-opacity="0"/>
</linearGradient>
</defs>
</svg>
