<svg id="Design" xmlns="http://www.w3.org/2000/svg" xmlns:xlink="http://www.w3.org/1999/xlink" viewBox="0 0 350 350"><defs><style>.cls-1,.cls-10,.cls-2,.cls-3,.cls-4,.cls-5,.cls-6,.cls-7,.cls-8,.cls-9{fill:#10fb06;}.cls-2{opacity:0.7;}.cls-3{opacity:0.6;}.cls-4{opacity:0.5;}.cls-5{opacity:0.4;}.cls-6{opacity:0.9;}.cls-7{opacity:0.8;}.cls-8{opacity:0.3;}.cls-9{opacity:0.2;}.cls-10{opacity:0.1;}.cls-11{fill:url(#linear-gradient);}.cls-12{fill:none;}.cls-12,.cls-13,.cls-14,.cls-15,.cls-16,.cls-17,.cls-18{stroke:#10fb06;stroke-miterlimit:10;stroke-width:2px;}.cls-13{fill:url(#linear-gradient-2);}.cls-14{fill:url(#linear-gradient-3);}.cls-15{fill:url(#linear-gradient-4);}.cls-16{fill:url(#linear-gradient-5);}.cls-17{fill:url(#linear-gradient-6);}.cls-18{fill:url(#linear-gradient-7);}</style><linearGradient id="linear-gradient" x1="175.61" y1="36.5" x2="175.61" y2="84.98" gradientUnits="userSpaceOnUse"><stop offset="0" stop-color="#282828"/><stop offset="1" stop-color="#191919"/></linearGradient><linearGradient id="linear-gradient-2" x1="93.78" y1="21.17" x2="93.78" y2="55.1" xlink:href="#linear-gradient"/><linearGradient id="linear-gradient-3" x1="134.7" y1="21.17" x2="134.7" y2="55.1" xlink:href="#linear-gradient"/><linearGradient id="linear-gradient-4" x1="175.61" y1="21.17" x2="175.61" y2="55.1" xlink:href="#linear-gradient"/><linearGradient id="linear-gradient-5" x1="216.53" y1="21.17" x2="216.53" y2="55.1" xlink:href="#linear-gradient"/><linearGradient id="linear-gradient-6" x1="257.44" y1="21.17" x2="257.44" y2="55.1" xlink:href="#linear-gradient"/><linearGradient id="linear-gradient-7" x1="266.8" y1="170.74" x2="267.52" y2="252.72" xlink:href="#linear-gradient"/></defs><title>No Text</title><rect class="cls-1" x="15.52" y="148.69" width="3.25" height="3.25" transform="translate(-101.27 56.16) rotate(-45)"/><rect class="cls-1" x="15.52" y="166.95" width="3.25" height="3.25" transform="translate(-114.18 61.5) rotate(-45)"/><rect class="cls-1" x="15.52" y="185.2" width="3.25" height="3.25" transform="translate(-127.09 66.85) rotate(-45)"/><rect class="cls-1" x="15.52" y="203.45" width="3.25" height="3.25" transform="translate(-139.99 72.2) rotate(-45)"/><rect class="cls-1" x="15.52" y="221.7" width="3.25" height="3.25" transform="translate(-152.9 77.54) rotate(-45)"/><rect class="cls-1" x="15.52" y="239.96" width="3.25" height="3.25" transform="translate(-165.79 82.87) rotate(-45)"/><rect class="cls-1" x="15.52" y="258.21" width="3.25" height="3.25" transform="translate(-178.7 88.22) rotate(-45)"/><rect class="cls-1" x="15.52" y="276.46" width="3.25" height="3.25" transform="translate(-191.61 93.56) rotate(-45)"/><rect class="cls-1" x="33.77" y="148.69" width="3.25" height="3.25" transform="translate(-95.93 69.06) rotate(-45)"/><rect class="cls-1" x="33.77" y="166.95" width="3.25" height="3.25" transform="translate(-108.83 74.41) rotate(-45)"/><rect class="cls-1" x="33.77" y="185.2" width="3.25" height="3.25" transform="translate(-121.74 79.76) rotate(-45)"/><rect class="cls-1" x="33.77" y="203.45" width="3.25" height="3.25" transform="translate(-134.65 85.1) rotate(-45)"/><rect class="cls-1" x="33.77" y="221.7" width="3.25" height="3.25" transform="translate(-147.56 90.45) rotate(-45)"/><rect class="cls-1" x="33.77" y="239.96" width="3.25" height="3.25" transform="translate(-160.45 95.78) rotate(-45)"/><rect class="cls-1" x="33.77" y="258.21" width="3.25" height="3.25" transform="translate(-173.35 101.12) rotate(-45)"/><rect class="cls-1" x="33.77" y="276.46" width="3.25" height="3.25" transform="translate(-186.26 106.47) rotate(-45)"/><rect class="cls-2" x="143.27" y="239.96" width="3.25" height="3.25" transform="translate(-128.39 173.22) rotate(-45)"/><rect class="cls-2" x="143.27" y="258.21" width="3.25" height="3.25" transform="translate(-141.3 178.57) rotate(-45)"/><rect class="cls-2" x="143.27" y="276.46" width="3.25" height="3.25" transform="translate(-154.21 183.95) rotate(-45.01)"/><rect class="cls-3" x="161.52" y="239.96" width="3.25" height="3.25" transform="translate(-123.04 186.13) rotate(-45)"/><rect class="cls-3" x="161.52" y="258.21" width="3.25" height="3.25" transform="translate(-135.95 191.48) rotate(-45)"/><rect class="cls-3" x="161.52" y="276.46" width="3.25" height="3.25" transform="translate(-148.86 196.85) rotate(-45.01)"/><rect class="cls-1" x="52.01" y="148.69" width="3.25" height="3.25" transform="translate(-90.59 81.97) rotate(-45.01)"/><rect class="cls-1" x="52.01" y="166.95" width="3.25" height="3.25" transform="translate(-103.5 87.32) rotate(-45.01)"/><rect class="cls-1" x="52.01" y="185.2" width="3.25" height="3.25" transform="translate(-116.41 92.67) rotate(-45.01)"/><rect class="cls-1" x="52.01" y="203.45" width="3.25" height="3.25" transform="translate(-129.32 98.01) rotate(-45.01)"/><rect class="cls-1" x="52.01" y="221.7" width="3.25" height="3.25" transform="translate(-142.23 103.36) rotate(-45.01)"/><rect class="cls-1" x="52.01" y="239.96" width="3.25" height="3.25" transform="translate(-155.12 108.69) rotate(-45)"/><rect class="cls-1" x="52.01" y="258.21" width="3.25" height="3.25" transform="translate(-168.03 114.04) rotate(-45)"/><rect class="cls-1" x="52.01" y="276.46" width="3.25" height="3.25" transform="translate(-180.94 119.38) rotate(-45)"/><rect class="cls-4" x="179.77" y="239.96" width="3.25" height="3.25" transform="translate(-117.7 199.04) rotate(-45)"/><rect class="cls-4" x="179.77" y="258.21" width="3.25" height="3.25" transform="translate(-130.6 204.39) rotate(-45)"/><rect class="cls-4" x="179.77" y="276.46" width="3.25" height="3.25" transform="translate(-143.52 209.76) rotate(-45.01)"/><rect class="cls-1" x="70.26" y="239.96" width="3.25" height="3.25" transform="translate(-149.77 121.6) rotate(-45)"/><rect class="cls-1" x="70.26" y="258.21" width="3.25" height="3.25" transform="translate(-162.68 126.94) rotate(-45)"/><rect class="cls-1" x="70.26" y="276.46" width="3.25" height="3.25" transform="translate(-175.59 132.29) rotate(-45)"/><rect class="cls-5" x="198.03" y="239.96" width="3.25" height="3.25" transform="translate(-112.35 211.92) rotate(-45)"/><rect class="cls-5" x="198.03" y="258.21" width="3.25" height="3.25" transform="translate(-125.25 217.26) rotate(-45)"/><rect class="cls-5" x="198.03" y="276.46" width="3.25" height="3.25" transform="translate(-138.16 222.64) rotate(-45)"/><rect class="cls-1" x="88.51" y="239.96" width="3.25" height="3.25" transform="translate(-144.42 134.48) rotate(-45)"/><rect class="cls-1" x="88.51" y="258.21" width="3.25" height="3.25" transform="translate(-157.32 139.83) rotate(-45)"/><rect class="cls-1" x="88.51" y="276.46" width="3.25" height="3.25" transform="translate(-170.23 145.17) rotate(-45)"/><rect class="cls-6" x="106.76" y="239.96" width="3.25" height="3.25" transform="translate(-139.07 147.39) rotate(-45)"/><rect class="cls-6" x="106.76" y="258.21" width="3.25" height="3.25" transform="translate(-151.98 152.73) rotate(-45)"/><rect class="cls-6" x="106.76" y="276.46" width="3.25" height="3.25" transform="translate(-164.88 158.08) rotate(-45)"/><rect class="cls-7" x="125.02" y="239.96" width="3.25" height="3.25" transform="translate(-133.73 160.29) rotate(-45)"/><rect class="cls-7" x="125.02" y="258.21" width="3.25" height="3.25" transform="translate(-146.63 165.64) rotate(-45)"/><rect class="cls-7" x="125.02" y="276.46" width="3.25" height="3.25" transform="translate(-159.54 170.98) rotate(-45)"/><rect class="cls-8" x="216.28" y="239.96" width="3.25" height="3.25" transform="translate(-107 224.85) rotate(-45)"/><rect class="cls-8" x="216.28" y="258.21" width="3.25" height="3.25" transform="translate(-119.91 230.2) rotate(-45)"/><rect class="cls-8" x="216.28" y="276.46" width="3.25" height="3.25" transform="translate(-132.82 235.55) rotate(-45)"/><rect class="cls-9" x="234.53" y="239.96" width="3.25" height="3.25" transform="translate(-101.66 237.76) rotate(-45)"/><rect class="cls-9" x="234.53" y="258.21" width="3.25" height="3.25" transform="translate(-114.56 243.11) rotate(-45)"/><rect class="cls-9" x="234.53" y="276.46" width="3.25" height="3.25" transform="translate(-127.47 248.45) rotate(-45)"/><rect class="cls-10" x="252.78" y="239.96" width="3.25" height="3.25" transform="translate(-96.31 250.63) rotate(-45)"/><rect class="cls-10" x="252.78" y="258.21" width="3.25" height="3.25" transform="translate(-109.22 255.98) rotate(-45)"/><rect class="cls-10" x="252.78" y="276.46" width="3.25" height="3.25" transform="translate(-122.12 261.32) rotate(-45)"/><path class="cls-11" d="M63.56,36.29V86.51h224.1V36.29ZM93.78,68.1a11.41,11.41,0,1,1,11.41-11.4A11.39,11.39,0,0,1,93.78,68.1Zm40.92,0a11.41,11.41,0,1,1,11.4-11.4A11.4,11.4,0,0,1,134.7,68.1Zm40.91,0A11.41,11.41,0,1,1,187,56.7,11.39,11.39,0,0,1,175.61,68.1Zm40.92,0a11.41,11.41,0,1,1,11.4-11.4A11.4,11.4,0,0,1,216.53,68.1Zm40.91,0a11.41,11.41,0,1,1,11.41-11.4A11.39,11.39,0,0,1,257.44,68.1Z"/><path class="cls-1" d="M287.66,36.29V232H63.56V36.29h224.1m2-2H61.56V234h228.1V34.29Z"/><line class="cls-12" x1="63.56" y1="86.51" x2="287.66" y2="86.51"/><circle class="cls-12" cx="93.78" cy="56.7" r="11.41"/><circle class="cls-12" cx="134.7" cy="56.7" r="11.41"/><circle class="cls-12" cx="175.61" cy="56.7" r="11.41"/><circle class="cls-12" cx="216.53" cy="56.7" r="11.41"/><circle class="cls-12" cx="257.44" cy="56.7" r="11.41"/><rect class="cls-13" x="88.44" y="21.17" width="10.69" height="33.93"/><rect class="cls-14" x="129.35" y="21.17" width="10.69" height="33.93"/><rect class="cls-15" x="170.27" y="21.17" width="10.69" height="33.93"/><rect class="cls-16" x="211.18" y="21.17" width="10.69" height="33.93"/><rect class="cls-17" x="252.1" y="21.17" width="10.69" height="33.93"/><rect class="cls-12" x="82.38" y="105.45" width="29.93" height="29.93"/><rect class="cls-12" x="199.78" y="105.45" width="29.93" height="29.93"/><rect class="cls-12" x="238.92" y="105.45" width="29.93" height="29.93"/><rect class="cls-12" x="160.65" y="105.45" width="29.93" height="29.93"/><rect class="cls-12" x="121.51" y="105.45" width="29.93" height="29.93"/><rect class="cls-12" x="82.38" y="144.3" width="29.93" height="29.93"/><rect class="cls-12" x="199.78" y="144.3" width="29.93" height="29.93"/><rect class="cls-12" x="238.92" y="144.3" width="29.93" height="29.93"/><rect class="cls-12" x="160.65" y="144.3" width="29.93" height="29.93"/><rect class="cls-12" x="121.51" y="144.3" width="29.93" height="29.93"/><rect class="cls-12" x="82.38" y="183.14" width="29.93" height="29.93"/><rect class="cls-12" x="199.78" y="183.14" width="29.93" height="29.93"/><rect class="cls-12" x="238.92" y="183.14" width="29.93" height="29.93"/><rect class="cls-12" x="160.65" y="183.14" width="29.93" height="29.93"/><rect class="cls-12" x="121.51" y="183.14" width="29.93" height="29.93"/><polygon class="cls-18" points="309.16 185.37 293.32 169.54 267.16 195.7 240.99 169.54 225.16 185.37 251.32 211.54 225.16 237.7 240.99 253.54 267.16 227.37 293.32 253.54 309.16 237.7 282.99 211.54 309.16 185.37"/></svg>